<svg version="1.1" id="Layer_1" xmlns="http://www.w3.org/2000/svg" xmlns:xlink="http://www.w3.org/1999/xlink" x="0px" y="0px"
	 width="100%" viewBox="0 0 1024 1024" enable-background="new 0 0 1024 1024" xml:space="preserve">
<path fill="#000000" opacity="1.000000" stroke="none" 
	d="
M440.000000,633.802246 
	C545.472229,633.801758 650.444397,633.801086 755.416626,633.803223 
	C766.604309,633.803467 770.256531,637.512573 770.281311,648.865662 
	C770.287842,651.864868 770.320862,654.864197 770.298340,657.863159 
	C770.235962,666.170471 766.047607,670.360474 757.612732,670.393860 
	C743.783264,670.448608 729.953430,670.423950 716.123779,670.423157 
	C613.151062,670.417297 510.178314,670.407410 407.205566,670.410767 
	C404.208527,670.410889 401.211761,670.586914 398.214386,670.604797 
	C391.582947,670.644287 386.833801,666.119263 386.652649,659.470764 
	C386.534698,655.141846 386.624695,650.807007 386.637726,646.474854 
	C386.664093,637.705627 390.158539,633.978210 399.011261,633.876099 
	C412.506012,633.720398 426.003601,633.814819 440.000000,633.802246 
z"/>
<path fill="#000000" opacity="1.000000" stroke="none" 
	d="
M707.000000,337.173096 
	C605.344604,337.172882 504.189178,337.176788 403.033783,337.161407 
	C399.718048,337.160919 396.367340,337.482880 393.136871,336.278412 
	C388.183624,334.431610 385.487274,330.633942 385.693939,325.656586 
	C385.901550,320.656708 388.826935,316.975464 394.009827,315.749084 
	C396.410248,315.181122 398.959259,315.046387 401.441040,315.045044 
	C520.094299,314.980774 638.747498,314.955078 757.400757,314.911102 
	C761.899475,314.909454 766.171204,315.597351 768.983093,319.504028 
	C771.341003,322.779907 772.147156,326.485596 770.351074,330.364044 
	C768.219910,334.965912 764.253601,336.968384 759.492920,337.096558 
	C751.333069,337.316223 743.163330,337.168030 734.997742,337.170837 
	C725.831848,337.173981 716.665894,337.173248 707.000000,337.173096 
z"/>
<path fill="#000000" opacity="1.000000" stroke="none" 
	d="
M479.999786,494.340515 
	C452.347748,494.332642 425.195648,494.366943 398.043823,494.292236 
	C388.474152,494.265900 383.092957,486.493134 387.003723,478.676941 
	C388.844849,474.997192 392.149323,473.608093 395.856659,472.939392 
	C397.476196,472.647247 399.177155,472.766541 400.841125,472.766296 
	C479.132172,472.754333 557.423218,472.746552 635.714294,472.748993 
	C643.924561,472.749237 647.855103,475.110687 649.403748,480.863922 
	C651.164001,487.403137 647.140869,493.452667 640.408203,494.224274 
	C638.432861,494.450623 636.415222,494.329895 634.416931,494.330139 
	C583.111206,494.336426 531.805542,494.337677 479.999786,494.340515 
z"/>
<path fill="#000000" opacity="1.000000" stroke="none" 
	d="
M324.711304,367.972382 
	C303.514984,375.216034 282.593201,369.932159 270.444305,354.513672 
	C249.216583,327.572998 262.759705,288.285339 296.116486,280.040466 
	C317.588013,274.733276 340.129486,285.311096 349.074860,304.891724 
	C358.493408,325.507996 352.258881,350.138489 334.348846,363.001434 
	C331.494537,365.051361 328.371887,366.610718 324.711304,367.972382 
M321.076843,347.648285 
	C329.325134,342.388611 333.642731,334.604218 333.485260,325.088684 
	C333.304321,314.154541 328.161896,305.621124 317.872437,300.971405 
	C307.226715,296.160675 297.215851,297.949615 288.666992,305.543365 
	C280.290466,312.984070 278.185089,322.843445 281.275146,333.337769 
	C286.206848,350.086487 304.183350,356.624115 321.076843,347.648285 
z"/>
<path fill="#000000" opacity="1.000000" stroke="none" 
	d="
M263.988647,499.748779 
	C255.300903,474.537567 267.066406,450.609467 287.250366,441.176086 
	C304.667023,433.036041 326.716522,436.300446 339.790436,449.144958 
	C353.557526,462.670471 357.943542,484.678650 350.254547,501.652222 
	C342.094757,519.665222 323.143494,531.060852 303.389923,529.072571 
	C284.782654,527.199707 271.623444,517.353394 263.988647,499.748779 
M303.125458,509.552673 
	C307.845917,510.142944 312.385254,509.421967 316.823517,507.768463 
	C328.570526,503.392029 335.761963,490.645050 333.531860,478.082153 
	C331.463776,466.431763 320.428406,456.703583 308.869843,456.341370 
	C295.485077,455.921906 284.014404,464.481293 281.297150,476.916046 
	C277.891022,492.503052 285.735260,504.639069 303.125458,509.552673 
z"/>
<path fill="#000000" opacity="1.000000" stroke="none" 
	d="
M264.185791,626.460571 
	C272.612152,606.389771 290.636169,595.185120 311.434326,596.829407 
	C331.857788,598.443970 347.818268,611.999573 352.646942,631.832092 
	C358.848083,657.301941 343.660767,682.195374 318.350128,688.047729 
	C292.305481,694.069763 267.514282,678.447571 262.175598,652.404541 
	C260.411072,643.796814 260.977966,635.172119 264.185791,626.460571 
M300.084747,617.442505 
	C282.208984,622.827942 275.526428,642.487427 284.923309,657.709900 
	C292.082336,669.307068 306.660553,673.066284 319.192566,666.834229 
	C331.296173,660.815369 336.967316,646.961426 332.517609,634.282898 
	C327.949036,621.265686 314.611267,614.101562 300.084747,617.442505 
z"/>
</svg>