<svg version="1.1" id="Layer_1" xmlns="http://www.w3.org/2000/svg" xmlns:xlink="http://www.w3.org/1999/xlink" x="0px" y="0px"
	 width="100%" viewBox="0 0 1024 1024" enable-background="new 0 0 1024 1024" xml:space="preserve">
<path fill="#000000" opacity="1.000000" stroke="none" 
	d="
M471.203339,561.150818 
	C494.643372,552.301208 510.245728,535.383484 521.541870,514.267273 
	C539.224915,481.212006 565.917480,458.571075 600.300354,444.612244 
	C605.612366,442.455627 609.039551,439.324280 611.398438,434.091064 
	C616.571838,422.614075 624.118286,412.629547 632.394531,403.204620 
	C634.376648,400.947388 636.454590,398.540314 639.453552,397.807495 
	C647.831848,395.760132 653.509583,389.791229 659.548157,384.362640 
	C710.959045,338.145264 762.469910,292.037781 813.666321,245.583817 
	C834.607483,226.582504 862.757446,235.642685 873.712585,253.798843 
	C880.901855,265.713776 879.706543,281.578400 871.324829,292.699036 
	C848.467102,323.025909 825.841431,353.527832 803.166992,383.992523 
	C784.370117,409.247345 765.661072,434.567535 746.832642,459.798737 
	C744.854675,462.449310 742.469482,464.841736 740.032288,467.093018 
	C736.430115,470.420532 733.157410,473.738525 732.698669,479.073547 
	C732.443542,482.040894 730.199402,484.083923 727.798035,485.721527 
	C714.721497,494.639038 701.612305,503.513550 687.572754,510.881348 
	C685.361267,512.041870 683.956360,513.502747 683.018860,515.827393 
	C675.231445,535.138245 664.062012,552.126404 647.965515,565.555969 
	C645.142334,567.911316 646.032104,570.054016 647.033264,572.575012 
	C654.714050,591.915833 662.357056,611.271667 670.065430,630.601501 
	C678.699890,652.253723 687.396851,673.880981 696.045837,695.527466 
	C696.786743,697.381653 697.483643,699.267639 698.008789,701.191284 
	C700.188477,709.175293 696.344299,715.977234 688.322693,718.107727 
	C686.100647,718.697937 683.720398,718.921936 681.412231,718.924805 
	C643.749634,718.971375 606.086914,718.965210 568.424255,718.949097 
	C551.534912,718.941833 548.673401,713.017761 544.663025,702.968262 
	C532.198303,671.732849 519.369446,640.641602 506.499664,609.570007 
	C504.336182,604.346680 502.349213,599.687927 508.371613,595.734863 
	C509.424835,595.043579 510.207733,593.804443 510.060364,591.988159 
	C505.365112,589.584961 499.919952,589.681580 494.829346,588.454041 
	C485.871552,586.293884 477.327667,583.105164 469.051239,579.141907 
	C467.417236,578.359436 465.802704,577.365112 464.474060,576.146912 
	C459.691193,571.761597 460.725037,565.526001 466.621155,562.806519 
	C467.975159,562.182007 469.437347,561.792053 471.203339,561.150818 
M716.614075,363.130798 
	C702.065430,376.036133 687.516724,388.941498 672.531189,402.234314 
	C682.240112,409.808716 691.791443,416.730652 700.362915,424.835022 
	C708.896179,432.903351 716.344788,441.962769 723.848206,451.332214 
	C724.828369,450.098846 725.358276,449.466431 725.851501,448.806580 
	C755.875305,408.641541 785.843323,368.434662 815.942932,328.326569 
	C828.041809,312.204590 840.436035,296.304382 852.679565,280.290771 
	C855.490601,276.614258 857.510742,272.685028 856.211853,267.825073 
	C852.880554,255.360291 839.870911,251.956741 829.952209,260.916992 
	C815.489929,273.981689 800.987183,287.001495 786.512146,300.051971 
	C763.377808,320.909454 740.251892,341.776398 716.614075,363.130798 
M616.854492,583.423828 
	C612.115906,584.385071 607.290527,582.834045 602.535522,584.022461 
	C590.287903,587.083435 578.113220,590.485046 565.486511,591.780090 
	C558.727783,592.473328 551.838135,592.332947 545.324341,594.753601 
	C537.613586,597.619141 534.816406,604.625305 538.565613,612.027161 
	C539.855713,614.574219 541.468506,617.098755 540.943542,620.021118 
	C539.639343,627.281311 542.432739,633.895691 544.805908,640.221558 
	C551.289612,657.504272 558.705078,674.435547 565.591064,691.570557 
	C567.095459,695.314087 569.181519,696.820862 573.397400,696.751709 
	C599.704834,696.319885 626.017273,696.194458 652.327576,695.925781 
	C663.747620,695.809204 663.997559,695.486511 663.390808,683.827332 
	C663.381897,683.655640 663.790649,683.462280 663.997925,683.289124 
	C665.262207,683.548157 664.727173,685.579712 666.408569,685.596313 
	C666.379272,685.099182 666.471924,684.587463 666.307556,684.179260 
	C655.622131,657.637390 644.563599,631.237610 634.406067,604.495667 
	C630.936646,595.361694 624.640625,589.422607 616.854492,583.423828 
M609.880676,535.372009 
	C617.758789,528.853027 624.336792,521.131348 630.589722,513.096619 
	C632.897339,510.131500 635.801880,506.766815 639.688904,509.331604 
	C643.374878,511.763702 640.720215,515.486450 639.227539,518.269409 
	C631.142456,533.343506 619.549500,545.406799 606.265381,555.960388 
	C601.454529,559.782410 601.306213,561.270325 605.414368,566.463562 
	C605.855408,566.373718 606.372437,566.363708 606.804321,566.166809 
	C636.068359,552.825745 655.253296,530.585205 665.199585,500.136810 
	C666.048340,497.538696 665.117920,495.637817 663.804565,493.638733 
	C654.037170,478.771942 641.646362,466.690308 626.132812,457.857666 
	C624.343323,456.838837 622.896729,456.690063 621.021851,457.537964 
	C613.139771,461.102386 604.994629,464.141174 597.324768,468.105560 
	C584.854309,474.551361 573.097351,482.140015 563.871460,493.008575 
	C562.568054,494.544037 560.281555,496.101807 562.336853,498.546021 
	C566.057922,502.971191 569.892944,507.300476 573.657532,511.643463 
	C576.935181,510.300903 578.861694,507.939575 581.150879,506.067108 
	C592.488647,496.793335 603.506775,487.061981 616.938538,480.758148 
	C619.350647,479.626099 622.466248,478.128418 624.230286,480.690063 
	C626.186401,483.530518 623.088928,485.343597 621.131042,487.042145 
	C620.126892,487.913300 619.071655,488.742523 617.961365,489.471832 
	C607.179382,496.554108 598.050110,505.601166 588.663940,514.314026 
	C581.801758,520.683899 582.021179,520.843933 586.847290,528.656372 
	C589.471619,532.904663 591.892517,537.278137 594.448853,541.569092 
	C595.107117,542.674011 595.547058,544.060181 597.399231,544.350708 
	C601.848572,542.415527 605.531372,539.032715 609.880676,535.372009 
M673.712036,428.794556 
	C668.270935,424.388153 662.589233,420.315643 656.585999,416.713654 
	C654.418213,415.412933 651.760132,413.983093 649.753784,416.390747 
	C644.040039,423.247253 638.684448,430.391357 635.192017,439.005493 
	C645.314209,445.466370 655.154236,451.689484 663.668091,459.731049 
	C672.140747,467.733643 679.704102,476.502808 686.126282,486.450287 
	C692.785645,483.417480 698.138489,479.139771 703.912781,475.577606 
	C710.677368,471.404572 710.709656,471.165436 706.469849,464.501007 
	C697.797485,450.869232 686.549805,439.578857 673.712036,428.794556 
z"/>
<path fill="#000000" opacity="1.000000" stroke="none" 
	d="
M487.923584,244.967133 
	C502.967224,244.790390 508.150604,248.077087 513.613159,261.358429 
	C534.895325,313.102142 556.121826,364.868774 577.376953,416.623627 
	C578.641479,419.702759 579.849243,422.815216 581.311646,425.800385 
	C582.949829,429.144287 581.930481,431.516571 579.112122,433.516083 
	C575.307739,436.215057 571.463013,438.865509 567.773254,441.714966 
	C564.891724,443.940247 563.299683,443.525818 561.899719,440.055939 
	C554.236267,421.062775 546.441711,402.122406 538.653259,383.179901 
	C523.456482,346.219543 508.185730,309.289459 493.097992,272.284698 
	C491.611908,268.639862 489.723999,267.280029 485.734833,267.312683 
	C463.236816,267.496826 440.735596,267.499451 418.237793,267.299957 
	C414.151001,267.263702 412.432800,268.773865 411.094208,272.461639 
	C392.516052,323.643585 373.776825,374.767029 355.110992,425.917175 
	C337.131165,475.187469 319.440033,524.561401 302.285370,574.125610 
	C289.162750,612.040222 276.120422,649.982544 263.066040,687.920715 
	C262.266205,690.245117 261.674377,692.641113 261.068298,694.720703 
	C262.258423,696.202148 263.504883,695.916565 264.618866,695.917908 
	C286.118103,695.942993 307.618134,695.846741 329.115906,696.026672 
	C333.253143,696.061279 334.882294,694.457336 335.946960,690.634827 
	C345.099426,657.774353 354.441895,624.966858 363.712463,592.139221 
	C365.404724,586.146851 370.615295,581.985046 378.119202,581.905701 
	C399.782898,581.676453 421.450348,581.803406 443.116272,581.768005 
	C444.868530,581.765137 446.327789,582.432739 447.784515,583.298340 
	C456.231628,588.317749 464.687592,593.322510 473.166901,598.287231 
	C474.662079,599.162659 476.302582,600.015625 475.754883,602.017029 
	C475.190735,604.078613 473.138580,603.842651 471.551270,603.853699 
	C456.552460,603.958313 441.553162,604.005920 426.553955,604.040405 
	C414.554352,604.067993 402.552399,604.189575 390.556396,603.982910 
	C386.592743,603.914612 384.668640,605.086487 383.556641,609.115234 
	C374.967010,640.234070 366.141357,671.287781 357.383850,702.360229 
	C353.825287,714.986450 348.782013,718.935120 335.547821,718.974121 
	C307.881989,719.055725 280.215759,719.044556 252.549805,718.992249 
	C241.984268,718.972290 236.248123,714.857971 234.171310,706.334900 
	C233.150269,702.144592 234.783630,698.409912 236.040985,694.688049 
	C247.283997,661.408142 258.514862,628.123230 269.988586,594.922424 
	C287.553955,544.094910 305.483276,493.395203 323.940918,442.883148 
	C344.797363,385.806305 365.592102,328.706940 386.407471,271.615112 
	C387.889252,267.550873 389.308105,263.463776 390.776550,259.394653 
	C393.622467,251.508423 398.957062,246.575317 407.470062,245.565048 
	C410.108643,245.251923 412.779724,245.081161 415.436554,245.074219 
	C439.436310,245.011490 463.436218,244.999680 487.923584,244.967133 
z"/>
<path fill="#000000" opacity="1.000000" stroke="none" 
	d="
M460.452576,412.416748 
	C458.057373,405.795227 455.792389,399.544403 453.527374,393.293579 
	C453.176941,393.231018 452.826477,393.168427 452.476013,393.105865 
	C441.195953,428.591797 429.915924,464.077728 418.338867,500.497986 
	C447.928650,500.497986 476.938080,500.497986 507.429810,500.497986 
	C504.512909,507.941772 502.165588,514.232910 499.551544,520.411194 
	C498.810822,522.161804 496.720123,521.919861 495.069702,521.922974 
	C464.585388,521.980591 434.100464,522.142334 403.617004,521.997986 
	C392.236084,521.944153 388.191315,515.689514 391.796173,504.792572 
	C408.151123,455.354065 424.523315,405.921204 440.813660,356.461395 
	C442.501709,351.336212 445.037384,347.410034 450.847504,346.712250 
	C456.278717,346.059937 460.310638,349.055145 462.665863,355.304169 
	C474.931671,387.848877 487.218079,420.385803 499.497284,452.925476 
	C502.787506,461.644531 506.007385,470.391144 509.399780,479.070282 
	C510.912811,482.941193 509.596222,484.318573 505.714020,484.137115 
	C503.386841,484.028351 501.050598,484.121490 498.718536,484.106110 
	C486.484741,484.025391 486.441254,484.039246 482.197449,472.394592 
	C474.960571,452.537201 467.784393,432.657654 460.452576,412.416748 
z"/>
</svg>