<svg version="1.1" id="Layer_1" xmlns="http://www.w3.org/2000/svg" xmlns:xlink="http://www.w3.org/1999/xlink" x="0px" y="0px"
	 width="100%" viewBox="0 0 1024 1024" enable-background="new 0 0 1024 1024" xml:space="preserve">
<path fill="#000000" opacity="1.000000" stroke="none" 
	d="
M489.005920,659.951416 
	C477.830139,669.731018 466.238342,678.466675 455.767578,688.528259 
	C447.358429,696.608887 446.202698,696.614197 436.139130,690.865601 
	C432.655701,693.300903 429.941254,696.685547 427.099396,699.898376 
	C423.202148,704.304260 418.576141,706.221558 412.566742,706.164185 
	C392.736664,705.974609 372.902527,706.173462 353.070282,706.279663 
	C349.954041,706.296387 346.946381,706.248352 345.380096,702.947083 
	C343.752594,699.516724 345.350159,696.952881 347.667175,694.457092 
	C361.280457,679.793640 373.319092,663.795776 386.389343,648.671875 
	C388.465027,646.270020 388.767395,644.534363 386.478271,641.873840 
	C381.289337,635.842834 381.400848,632.338928 386.155731,625.899780 
	C393.973022,615.313477 401.610168,604.586304 409.692047,594.205627 
	C417.582458,584.070984 418.259369,572.507812 417.205139,560.549622 
	C416.783386,555.765625 415.643280,551.039734 414.740692,546.304382 
	C412.060181,532.241333 416.341309,520.266602 425.935272,510.090912 
	C439.993347,495.180389 454.188507,480.397797 468.425964,465.657959 
	C506.858429,425.869354 545.303162,386.092529 583.820129,346.385773 
	C621.644043,307.393433 659.558350,268.488678 697.443970,229.556107 
	C704.163696,222.650681 710.012085,214.806396 718.358643,209.631180 
	C728.094360,203.594666 738.211792,202.000534 748.608765,207.864746 
	C750.948486,209.184418 752.369080,208.950897 754.211304,207.112656 
	C757.509827,203.821167 761.125488,200.850464 764.523499,197.655258 
	C773.223267,189.474823 784.862366,187.647812 795.426758,193.115570 
	C798.660767,194.789352 801.889832,196.698578 804.625122,199.071671 
	C817.586914,210.317261 830.520508,221.604004 843.176086,233.190704 
	C851.079590,240.426682 855.237305,249.401932 853.354736,260.483459 
	C852.779175,263.871216 851.337952,266.808716 849.183716,269.420532 
	C847.064026,271.990417 845.060120,274.691010 842.688599,277.010345 
	C838.419495,281.185486 836.729004,285.076782 839.581421,291.370880 
	C844.040039,301.209290 841.236633,310.713684 834.625366,318.891479 
	C797.447998,364.877991 760.210571,410.816010 722.935791,456.723633 
	C687.340332,500.563110 651.669006,544.341064 616.041748,588.154663 
	C604.272217,602.628540 592.756775,617.316101 580.714172,631.558533 
	C571.224243,642.782043 560.233032,652.043396 545.000488,654.709595 
	C540.065002,655.573547 535.434387,654.131958 530.661621,653.863831 
	C516.523254,653.069397 502.359039,652.698303 489.005920,659.951416 
M697.663391,259.162079 
	C692.006653,265.048126 686.364014,270.947754 680.690796,276.817902 
	C651.743652,306.769928 622.810547,336.735565 593.830811,366.656128 
	C558.008850,403.641113 522.134644,440.575562 486.317200,477.564972 
	C482.540405,481.465332 478.993347,485.588135 474.831726,490.166656 
	C513.049561,521.362610 548.005493,555.130859 583.752991,587.624268 
	C586.369690,586.629883 587.354492,584.812927 588.596802,583.286743 
	C600.377625,568.814880 612.137634,554.326111 623.914429,539.850830 
	C648.409363,509.743164 672.902466,479.634094 697.411743,449.538086 
	C724.867249,415.824188 752.337341,382.122040 779.806152,348.418945 
	C790.121582,335.762390 800.483337,323.143524 810.760559,310.456055 
	C815.403381,304.724213 816.140320,299.198822 811.909058,294.570190 
	C807.254272,289.477997 801.741699,285.169922 796.086426,280.052917 
	C794.841003,281.648285 794.042236,282.702606 793.211365,283.731079 
	C778.975281,301.354156 764.860046,319.076813 750.464783,336.568939 
	C731.942078,359.076355 713.217346,381.417755 694.522949,403.783234 
	C690.925598,408.086975 685.625000,408.896606 682.143677,405.980103 
	C678.765869,403.150299 678.802795,398.683380 682.548096,394.039917 
	C695.204895,378.347717 707.848877,362.643524 720.670776,347.086517 
	C741.013367,322.404327 761.458557,297.806183 781.973450,273.267029 
	C784.138489,270.677338 784.370239,269.168396 781.660950,266.801239 
	C768.989624,255.730225 756.563354,244.378922 743.906311,233.291260 
	C735.646118,226.055237 729.370911,226.362442 721.727844,234.165863 
	C713.800232,242.259888 706.011353,250.489822 697.663391,259.162079 
M529.908325,623.584412 
	C539.395996,632.348389 547.922424,631.987000 556.560303,622.461060 
	C558.350098,620.487305 560.162598,618.534119 561.955139,616.562927 
	C571.103271,606.503052 571.085144,605.343323 561.150391,595.932190 
	C538.058105,574.057007 514.584656,552.592834 490.760651,531.521301 
	C480.689789,522.613953 470.100616,514.292603 459.307526,505.340363 
	C452.487854,512.719604 445.643768,519.517273 439.553467,526.933899 
	C435.641815,531.697510 436.586578,538.407471 440.955353,542.938538 
	C444.300934,546.408447 448.070923,549.464661 451.524750,552.835388 
	C476.563019,577.271240 502.729279,600.455933 529.908325,623.584412 
M458.239746,658.718750 
	C463.450714,654.325439 468.807312,650.091370 473.833557,645.496033 
	C479.392059,640.414062 485.762329,637.268921 493.046967,635.483276 
	C499.140625,633.989563 505.450775,633.942322 511.738586,632.622375 
	C508.609070,628.107666 442.266632,567.562012 438.825317,566.026672 
	C438.741638,567.393616 438.550140,568.700439 438.599182,569.998169 
	C439.159088,584.815063 434.366577,597.721558 424.990875,609.110840 
	C421.719482,613.084717 418.970886,617.486084 415.755646,621.510132 
	C413.030426,624.920898 413.470428,627.368774 416.639130,630.403259 
	C426.732330,640.068970 436.770386,649.766907 447.375610,658.896423 
	C451.289215,662.265442 454.135040,663.213562 458.239746,658.718750 
M802.658264,255.827454 
	C808.385986,260.812073 814.113647,265.796692 820.135864,271.037567 
	C823.243713,267.347046 825.939209,264.217407 828.555725,261.023132 
	C832.840088,255.792847 832.999146,251.710815 827.908020,247.088364 
	C815.603149,235.916489 803.023132,225.043045 790.399109,214.230164 
	C786.744019,211.099380 780.596619,210.930252 776.933960,213.970535 
	C773.437378,216.872925 770.583130,220.549149 766.930237,224.434357 
	C778.717346,234.784149 790.427307,245.066238 802.658264,255.827454 
z"/>
<path fill="#000000" opacity="1.000000" stroke="none" 
	d="
M221.000000,766.962891 
	C206.671432,766.970398 192.834991,766.699036 179.017105,767.087646 
	C170.039291,767.340149 164.375900,761.568909 168.428223,752.327820 
	C171.957153,744.280273 174.324249,735.724548 177.233139,727.403320 
	C179.196381,721.787231 184.163574,718.808838 191.575500,718.805054 
	C216.566849,718.792297 241.558182,718.795898 266.549530,718.794250 
	C367.514801,718.787598 468.480042,718.777771 569.445312,718.780273 
	C579.322021,718.780518 582.960876,724.117676 579.558411,733.335388 
	C576.678772,741.136597 573.719482,748.919983 571.210999,756.842834 
	C569.377136,762.635010 565.653137,765.781677 559.860107,766.603638 
	C557.237427,766.975769 554.546997,766.966980 551.887268,766.967224 
	C441.758179,766.977783 331.629089,766.969727 221.000000,766.962891 
z"/>
</svg>